<svg xmlns="http://www.w3.org/2000/svg" version="1.1" xmlns:xlink="http://www.w3.org/1999/xlink" width="200" height="200"><svg xmlns="http://www.w3.org/2000/svg" version="1.1" xmlns:xlink="http://www.w3.org/1999/xlink" viewBox="0 0 200 200"><rect width="200" height="200" fill="url('#gradient')"></rect><defs><linearGradient id="SvgjsLinearGradient1032" gradientTransform="rotate(45 0.5 0.5)"><stop offset="0%" stop-color="#fdf9f3"></stop><stop offset="100%" stop-color="#dde2f9"></stop></linearGradient></defs><g><g fill="#7958fe" transform="matrix(5.838454228698131,0,0,5.838454228698131,6.559563530257961,130.80116452315883)" stroke="#9a9ea6" stroke-width="0.1"><path d="M7.29-10.57L10.17-10.57L10.17-3.45Q10.20-2.35 10.84-2.35L10.84-2.35Q10.95-2.35 11.00-2.38L11.00-2.38L11.25 0Q10.75 0.21 10.03 0.21L10.03 0.21Q8.08 0.21 7.27-1.45L7.27-1.45Q6.34 0.20 4.70 0.20L4.70 0.20Q2.79 0.20 1.69-1.22Q0.59-2.63 0.59-5.26L0.59-5.26Q0.59-7.77 1.68-9.27Q2.78-10.76 4.72-10.76L4.72-10.76Q6.19-10.76 7.06-9.36L7.06-9.36L7.29-10.57ZM3.90-5.06L3.90-5.06Q3.90-3.66 4.30-3.00Q4.71-2.34 5.53-2.34L5.53-2.34Q6.43-2.34 6.87-2.96L6.87-2.96L6.87-7.50Q6.43-8.22 5.55-8.22L5.55-8.22Q3.90-8.22 3.90-5.06ZM17.71-2.97L17.71-2.97Q17.71-3.39 17.27-3.64Q16.83-3.90 15.60-4.17Q14.37-4.44 13.56-4.89Q12.76-5.33 12.34-5.97Q11.92-6.60 11.92-7.42L11.92-7.42Q11.92-8.88 13.13-9.82Q14.33-10.76 16.27-10.76L16.27-10.76Q18.36-10.76 19.63-9.81Q20.90-8.87 20.90-7.32L20.90-7.32L17.60-7.32Q17.60-8.59 16.26-8.59L16.26-8.59Q15.74-8.59 15.39-8.31Q15.04-8.02 15.04-7.59L15.04-7.59Q15.04-7.15 15.47-6.88Q15.90-6.60 16.84-6.43Q17.78-6.25 18.50-6.01L18.50-6.01Q20.88-5.19 20.88-3.07L20.88-3.07Q20.88-1.62 19.59-0.71Q18.31 0.20 16.27 0.20L16.27 0.20Q14.91 0.20 13.85-0.29Q12.78-0.78 12.19-1.62Q11.59-2.46 11.59-3.39L11.59-3.39L14.67-3.39Q14.69-2.66 15.16-2.32Q15.63-1.98 16.36-1.98L16.36-1.98Q17.03-1.98 17.37-2.26Q17.71-2.53 17.71-2.97ZM26.88-2.34L26.88-2.34Q27.58-2.34 27.96-2.72Q28.34-3.10 28.33-3.77L28.33-3.77L31.42-3.77Q31.42-2.03 30.17-0.92Q28.93 0.20 26.96 0.20L26.96 0.20Q24.66 0.20 23.33-1.25Q22.00-2.70 22.00-5.25L22.00-5.25L22.00-5.39Q22.00-6.99 22.59-8.22Q23.18-9.44 24.30-10.10Q25.41-10.76 26.93-10.76L26.93-10.76Q28.99-10.76 30.21-9.62Q31.42-8.48 31.42-6.52L31.42-6.52L28.33-6.52Q28.33-7.34 27.93-7.78Q27.53-8.22 26.86-8.22L26.86-8.22Q25.58-8.22 25.36-6.59L25.36-6.59Q25.29-6.07 25.29-5.17L25.29-5.17Q25.29-3.57 25.67-2.96Q26.05-2.34 26.88-2.34Z"></path></g></g></svg><style>@media (prefers-color-scheme: light) { :root { filter: none; } }
@media (prefers-color-scheme: dark) { :root { filter: none; } }
</style></svg>